<?xml version="1.0" encoding="UTF-8"?>
<svg width="512" height="512" version="1.1" viewBox="0 0 512 512" xmlns="http://www.w3.org/2000/svg">
 <rect width="512" height="512" fill="#2196f3"/>
 <g transform="matrix(12.8,0,0,12.8,96,96)" fill="#fff">
  <path d="m15 3.5c-0.3 0-0.5 0.2-0.5 0.5v2c0 0.3 0.2 0.5 0.5 0.5s0.5-0.2 0.5-0.5v-2c0-0.3-0.2-0.5-0.5-0.5z"/>
  <path d="m15 8.5c-0.3 0-0.5 0.2-0.5 0.5v2c0 0.3 0.2 0.5 0.5 0.5s0.5-0.2 0.5-0.5v-2c0-0.3-0.2-0.5-0.5-0.5z"/>
  <path d="m19.5 7h-2c-0.3 0-0.5 0.2-0.5 0.5s0.2 0.5 0.5 0.5h2c0.3 0 0.5-0.2 0.5-0.5s-0.2-0.5-0.5-0.5z"/>
  <path d="m12.5 7h-2c-0.3 0-0.5 0.2-0.5 0.5s0.2 0.5 0.5 0.5h2c0.3 0 0.5-0.2 0.5-0.5s-0.2-0.5-0.5-0.5z"/>
  <path d="m17.8 4.2c-0.2-0.2-0.5-0.2-0.7 0l-1.4 1.4c-0.2 0.2-0.2 0.5 0 0.7s0.5 0.2 0.7 0l1.4-1.4c0.2-0.2 0.2-0.5 0-0.7z"/>
  <path d="m13.6 8.4c-0.2-0.2-0.5-0.2-0.7 0l-1.4 1.4c-0.2 0.2-0.2 0.5 0 0.7s0.5 0.2 0.7 0l1.4-1.4c0.2-0.2 0.2-0.5 0-0.7z"/>
  <path d="m17.8 10.8c0.2-0.2 0.2-0.5 0-0.7l-1.4-1.4c-0.2-0.2-0.5-0.2-0.7 0s-0.2 0.5 0 0.7l1.4 1.4c0.2 0.2 0.5 0.2 0.7 0z"/>
  <path d="m13.6 6.6c0.2-0.2 0.2-0.5 0-0.7l-1.4-1.4c-0.2-0.2-0.5-0.2-0.7 0s-0.2 0.5 0 0.7l1.4 1.4c0.2 0.2 0.5 0.2 0.7 0z"/>
 </g>
</svg>
